<svg width="242.229" height="59.469" xmlns="http://www.w3.org/2000/svg">

 <g>
  <title>background</title>
  <rect fill="none" id="canvas_background" height="61.469" width="244.229" y="-1" x="-1"/>
 </g>
 <g>
  <title>Layer 1</title>
  <path id="svg_19" d="m93.46785,0.73689l5.08,0l0,26.94l-5.08,0l0,-26.94z" fill="#4C5356"/>
  <path id="svg_20" d="m134.96185,5.00489c1.055,0 1.98,0.163 2.779,0.491s1.471,0.791 2.012,1.39c0.541,0.6 0.941,1.305 1.197,2.118s0.387,1.706 0.387,2.675l0,12.151c0,2.565 -1.285,3.849 -3.852,3.849l-11.421,0c-1.941,0 -3.367,-0.584 -4.279,-1.754c-0.912,-1.169 -1.369,-2.936 -1.369,-5.305c0,-2.139 0.457,-3.851 1.369,-5.134c0.912,-1.284 2.338,-1.925 4.279,-1.925l10.268,0l0,-1.455c0,-2.167 -1.055,-3.252 -3.168,-3.252l-11.08,0l0,-3.85l12.878,0l0,0.001zm-6.973,12.406c-0.855,0 -1.473,0.265 -1.842,0.792c-0.371,0.528 -0.557,1.333 -0.557,2.417c0,1.086 0.186,1.891 0.557,2.418c0.369,0.527 0.986,0.792 1.842,0.792l7.059,0c0.855,0 1.283,-0.429 1.283,-1.284l0,-5.135l-8.342,0z" fill="#4C5356"/>
  <path id="svg_21" d="m187.48385,5.00489l5.008,0l0,22.674l-5.008,0l0,-22.674z" fill="#4C5356"/>
  <path id="svg_22" d="m207.17285,8.85489c-1.311,0 -2.352,0.186 -3.121,0.557c-0.771,0.37 -1.35,0.892 -1.734,1.561c-0.385,0.672 -0.635,1.462 -0.746,2.375c-0.115,0.913 -0.172,1.898 -0.172,2.953c0,1.084 0.057,2.082 0.172,2.995c0.111,0.913 0.361,1.704 0.746,2.374s0.963,1.197 1.734,1.583c0.77,0.384 1.811,0.578 3.121,0.578l8.771,0l0,3.849l-10.01,0c-1.941,0 -3.529,-0.271 -4.771,-0.812c-1.24,-0.541 -2.232,-1.311 -2.973,-2.31c-0.742,-0.997 -1.258,-2.196 -1.541,-3.595c-0.285,-1.396 -0.428,-2.951 -0.428,-4.662c0,-1.712 0.143,-3.258 0.428,-4.644c0.283,-1.382 0.799,-2.566 1.541,-3.55c0.74,-0.985 1.732,-1.748 2.973,-2.29c1.242,-0.54 2.83,-0.812 4.771,-0.812l9.496,0l0,3.85l-8.257,0z" fill="#4C5356"/>
  <path id="svg_23" d="m152.24685,0.73689l-5.002,0l0,4.269l-3.123,0l0,3.85l3.123,0l0,11.424c0,1.397 0.191,2.566 0.576,3.508c0.385,0.942 0.941,1.706 1.67,2.289c0.727,0.585 1.602,0.998 2.629,1.24c1.027,0.243 2.182,0.363 3.467,0.363l3.121,0l0,-3.849l-1.238,0c-1.715,0 -3.01,-0.337 -3.895,-1.006c-0.885,-0.671 -1.328,-1.862 -1.328,-3.573l0,-10.397l6.461,0l0,-3.85l-6.461,0l0,-4.268z" fill="#4C5356"/>
  <path id="svg_24" d="m237.70985,6.62989c-0.77,-0.599 -1.697,-1.02 -2.781,-1.263c-1.082,-0.241 -2.266,-0.362 -3.551,-0.362l-6.803,0l0,-4.268l-5.004,0l0,26.942l5.004,0l0,-18.824l5.861,0c1.711,0 2.932,0.443 3.66,1.326c0.727,0.885 1.088,2.182 1.088,3.893l0,13.605l5.008,0l0,-14.93c0,-1.483 -0.223,-2.724 -0.662,-3.724c-0.443,-0.997 -1.048,-1.795 -1.82,-2.395z" fill="#4C5356"/>
  <path id="svg_25" d="m132.97985,35.75089c2.025,0 3.793,0.179 5.307,0.535c1.51,0.356 2.766,0.979 3.764,1.861c0.998,0.884 1.746,2.068 2.246,3.551c0.5,1.483 0.75,3.352 0.75,5.604c0,2.284 -0.25,4.165 -0.75,5.649c-0.5,1.481 -1.248,2.672 -2.246,3.572c-0.998,0.897 -2.254,1.525 -3.764,1.881c-1.514,0.356 -3.281,0.536 -5.307,0.536s-3.793,-0.18 -5.305,-0.536c-1.512,-0.355 -2.766,-0.983 -3.764,-1.881c-1,-0.9 -1.75,-2.091 -2.246,-3.572c-0.502,-1.484 -0.75,-3.365 -0.75,-5.649c0,-2.253 0.248,-4.121 0.75,-5.604c0.496,-1.482 1.246,-2.667 2.246,-3.551c0.998,-0.883 2.252,-1.505 3.764,-1.861s3.279,-0.535 5.305,-0.535zm-6.889,11.552c0,1.398 0.121,2.589 0.365,3.573c0.242,0.983 0.627,1.791 1.156,2.418c0.527,0.627 1.232,1.083 2.115,1.368c0.883,0.286 1.969,0.428 3.252,0.428s2.369,-0.142 3.252,-0.428c0.885,-0.285 1.59,-0.741 2.117,-1.368s0.914,-1.435 1.156,-2.418c0.24,-0.984 0.363,-2.175 0.363,-3.573c0,-1.396 -0.123,-2.581 -0.363,-3.55c-0.242,-0.971 -0.629,-1.762 -1.156,-2.376c-0.527,-0.613 -1.232,-1.062 -2.117,-1.347c-0.883,-0.285 -1.969,-0.43 -3.252,-0.43s-2.369,0.145 -3.252,0.43c-0.883,0.284 -1.588,0.733 -2.115,1.347c-0.529,0.614 -0.914,1.405 -1.156,2.376c-0.244,0.969 -0.365,2.155 -0.365,3.55z" fill="#4C5356"/>
  <path id="svg_26" d="m163.54585,31.74089l0,4.269l-6.758,0c-1.826,0 -3.34,0.271 -4.539,0.812c-1.195,0.543 -2.145,1.305 -2.842,2.289c-0.699,0.984 -1.193,2.168 -1.477,3.551c-0.285,1.384 -0.43,2.932 -0.43,4.642c0,1.712 0.145,3.267 0.43,4.664c0.283,1.399 0.777,2.596 1.477,3.594c0.697,0.999 1.646,1.769 2.842,2.311c1.199,0.542 2.713,0.812 4.539,0.812l7.912,0c2.568,0 3.852,-1.282 3.852,-3.85l0,-23.094l-5.006,0zm0,21.809c0,0.855 -0.428,1.284 -1.283,1.284l-4.236,0c-1.199,0 -2.152,-0.193 -2.865,-0.579c-0.715,-0.385 -1.258,-0.911 -1.627,-1.582c-0.369,-0.669 -0.607,-1.461 -0.707,-2.375c-0.1,-0.912 -0.146,-1.91 -0.146,-2.995c0,-1.055 0.047,-2.038 0.146,-2.952c0.1,-0.911 0.338,-1.703 0.707,-2.374s0.912,-1.19 1.627,-1.562c0.713,-0.369 1.666,-0.555 2.865,-0.555l5.52,0l0,13.69l-0.001,0z" fill="#4C5356"/>
  <path id="svg_27" d="m187.47985,31.74089l0,4.269l-6.762,0c-1.824,0 -3.336,0.271 -4.533,0.812c-1.199,0.543 -2.148,1.305 -2.848,2.289s-1.189,2.168 -1.475,3.551c-0.285,1.384 -0.428,2.932 -0.428,4.642c0,1.712 0.143,3.267 0.428,4.664c0.285,1.399 0.775,2.596 1.475,3.594c0.699,0.999 1.648,1.769 2.848,2.311c1.197,0.542 2.709,0.812 4.533,0.812l7.916,0c2.566,0 3.852,-1.282 3.852,-3.85l0,-23.094l-5.006,0zm0,21.809c0,0.855 -0.428,1.284 -1.285,1.284l-4.236,0c-1.197,0 -2.154,-0.193 -2.865,-0.579c-0.713,-0.385 -1.254,-0.911 -1.625,-1.582c-0.371,-0.669 -0.607,-1.461 -0.707,-2.375c-0.1,-0.912 -0.15,-1.91 -0.15,-2.995c0,-1.055 0.051,-2.038 0.15,-2.952c0.1,-0.911 0.336,-1.703 0.707,-2.374s0.912,-1.19 1.625,-1.562c0.711,-0.369 1.668,-0.555 2.865,-0.555l5.521,0l0,13.69z" fill="#4C5356"/>
  <path id="svg_28" d="m118.07885,40.34289c-0.244,-1.604 -0.746,-3.04 -1.502,-4.311c-0.758,-1.271 -1.836,-2.303 -3.234,-3.099s-3.236,-1.193 -5.521,-1.193l-9.281,0l-1.148,0l-3.929,0l0,4.042l0,0.877l0,17.981c0,1.54 0.367,2.599 1.098,3.176s1.676,0.866 2.83,0.866l11.123,0c2.104,0 3.811,-0.397 5.119,-1.192c1.309,-0.797 2.314,-1.83 3.021,-3.101c0.705,-1.269 1.18,-2.706 1.424,-4.31c0.242,-1.604 0.365,-3.226 0.365,-4.87c0,-1.639 -0.123,-3.262 -0.365,-4.866zm-5.119,8.621c-0.168,1.142 -0.506,2.135 -1.021,2.982c-0.51,0.848 -1.236,1.508 -2.174,1.981c-0.936,0.476 -2.176,0.713 -3.713,0.713l-5.582,0c-0.77,0 -1.283,-0.128 -1.539,-0.384c-0.258,-0.258 -0.385,-0.771 -0.385,-1.541l0,-8.364l0,-6.645l0,-1.923l1.924,0l2.961,0l2.621,0c1.537,0 2.777,0.238 3.713,0.712c0.938,0.475 1.664,1.135 2.174,1.981c0.516,0.847 0.854,1.848 1.021,3.002c0.166,1.154 0.25,2.4 0.25,3.732c0,1.362 -0.084,2.613 -0.25,3.754z" fill="#4C5356"/>
  <path id="svg_29" d="m106.32285,15.84389c-0.438,-0.499 -0.736,-0.963 -0.736,-1.587c0,-0.518 0.203,-0.988 0.529,-1.365c0.16,-0.225 0.359,-0.448 0.584,-0.659l11.539,-11.51l-6.885,0l-9.275,9.467c-0.465,0.466 -0.938,1.03 -1.42,1.692c-0.051,0.068 -0.086,0.145 -0.129,0.213c-0.453,0.605 -0.727,1.345 -0.727,2.148c0,0.706 0.211,1.362 0.568,1.92c0.066,0.118 0.127,0.239 0.205,0.348c0.484,0.663 0.957,1.227 1.422,1.693l9.275,9.466l6.885,0l-11.539,-11.511c-0.11,-0.103 -0.204,-0.208 -0.296,-0.315z" fill="#4C5356"/>
  <path id="svg_30" d="m182.60485,9.02589c-0.441,-0.998 -1.049,-1.796 -1.818,-2.396c-0.77,-0.599 -1.697,-1.02 -2.781,-1.263c-1.086,-0.241 -2.268,-0.362 -3.551,-0.362l-2.41,0l-0.891,0l-3.768,0c-2.566,0 -3.852,1.282 -3.852,3.85l0,18.824l5.008,0l0,-17.541c0,-0.855 0.428,-1.283 1.281,-1.283l1.33,0l0.891,0l1.469,0c1.713,0 2.93,0.443 3.658,1.326c0.727,0.885 1.092,2.182 1.092,3.893l0,13.605l5.006,0l0,-14.93c0,-1.483 -0.221,-2.723 -0.664,-3.723z" fill="#4C5356"/>
  <path id="svg_31" d="m75.45385,22.79689l0,0l-22.06,-22.061l-13.754,0.001l26.086,26.084c1.59,1.591 1.59,4.173 0,5.765l-26.086,26.083l13.754,0l22.06,-22.061c3.815,-3.814 3.815,-9.996 0,-13.811z" fill="#57A519"/>
  <path id="svg_32" d="m3.82485,36.60889l0,0l22.062,22.062l13.752,0l-26.083,-26.086c-1.592,-1.591 -1.592,-4.173 0,-5.765l26.084,-26.083l-13.752,0l-22.063,22.061c-3.814,3.814 -3.814,9.996 0,13.811z" fill="#4C5356"/>
 </g>
</svg>