<?xml version="1.0" standalone="no"?>
<!DOCTYPE svg PUBLIC "-//W3C//DTD SVG 20010904//EN"
 "http://www.w3.org/TR/2001/REC-SVG-20010904/DTD/svg10.dtd">
<svg version="1.0" xmlns="http://www.w3.org/2000/svg"
 width="144.000000pt" height="144.000000pt" viewBox="0 0 144.000000 144.000000"
 preserveAspectRatio="xMidYMid meet">
<metadata>
Created by potrace 1.11, written by Peter Selinger 2001-2013
</metadata>
<g transform="translate(0.000000,144.000000) scale(0.100000,-0.100000)"
fill="#000000" stroke="none">
<path d="M429 1224 c-21 -17 -35 -34 -32 -38 4 -3 0 -6 -9 -6 -8 0 -21 -11
-28 -25 -7 -13 -17 -22 -22 -19 -4 3 -8 -2 -8 -10 0 -9 -7 -16 -16 -16 -8 0
-12 -4 -9 -10 3 -5 -1 -10 -9 -10 -9 0 -16 -7 -16 -17 0 -9 -3 -13 -6 -10 -7
7 -54 -42 -54 -56 0 -5 -3 -6 -7 -4 -10 5 -43 -30 -35 -37 3 -3 -2 -6 -11 -6
-9 0 -17 -7 -17 -17 0 -9 -3 -14 -6 -10 -8 8 -34 -18 -34 -34 0 -7 -3 -10 -6
-6 -7 7 -44 -29 -44 -45 0 -6 -3 -8 -7 -5 -10 11 -42 -44 -35 -61 3 -10 1 -13
-6 -8 -9 5 -12 -7 -12 -44 0 -38 3 -49 12 -44 9 5 9 2 -1 -9 -9 -11 -10 -17
-2 -17 6 0 11 -7 11 -15 0 -8 11 -25 25 -37 13 -11 22 -24 20 -28 -2 -4 7 -13
20 -20 14 -7 25 -18 25 -24 0 -6 16 -22 34 -36 19 -14 32 -27 30 -29 -2 -2 11
-15 28 -28 18 -12 28 -23 22 -23 -5 0 5 -9 21 -20 17 -11 26 -20 20 -20 -5 0
4 -9 20 -20 17 -11 26 -20 22 -20 -5 0 -2 -7 7 -15 8 -8 19 -15 25 -15 6 0 11
-7 11 -15 0 -8 7 -15 15 -15 9 0 18 -7 22 -15 8 -22 61 -74 68 -67 3 3 5 1 5
-4 0 -5 54 -9 120 -9 66 0 120 4 120 8 0 5 -35 43 -77 85 -43 42 -77 79 -76
84 2 4 -2 8 -8 8 -15 0 -39 26 -39 42 0 10 -3 9 -10 -2 -7 -10 -10 -11 -10 -2
0 6 -39 51 -87 99 -49 48 -87 91 -85 95 1 4 -3 8 -8 8 -6 0 -26 16 -46 35 -19
19 -32 35 -29 35 3 0 -1 10 -9 21 -13 19 -13 24 2 48 23 37 75 87 87 83 5 -2
7 -1 3 3 -7 8 62 81 74 78 4 -2 8 2 8 7 0 6 70 80 155 165 85 86 155 158 155
163 0 4 -52 7 -117 7 -116 1 -116 1 -154 -31z"/>
<path d="M724 1250 c-12 -5 -14 -9 -6 -14 7 -4 12 -5 12 -2 0 3 23 -17 50 -45
28 -27 50 -55 50 -61 0 -6 3 -9 6 -5 8 7 73 -56 67 -65 -4 -8 12 -12 30 -9 5
1 6 -3 3 -8 -3 -5 10 -22 29 -38 19 -17 32 -33 28 -36 -3 -4 -1 -7 5 -7 15 0
52 -36 52 -51 0 -5 3 -8 8 -6 4 2 26 -16 50 -39 23 -24 40 -44 38 -44 -3 0 5
-10 17 -23 12 -13 25 -22 30 -20 4 2 7 -3 7 -12 0 -9 4 -14 8 -11 5 3 8 -8 8
-25 0 -16 -3 -29 -8 -29 -4 0 -8 -9 -8 -21 0 -11 -4 -17 -10 -14 -5 3 -10 2
-10 -3 0 -11 -230 -244 -231 -234 0 4 -4 -3 -9 -16 -5 -12 -17 -22 -26 -22
-10 0 -15 -2 -12 -5 7 -7 -171 -185 -186 -186 -6 0 0 -4 14 -8 14 -4 74 -7
133 -6 100 1 109 3 132 25 13 14 31 30 39 37 7 7 16 16 17 20 2 4 21 23 42 41
21 17 36 32 33 32 -2 0 10 15 27 33 18 18 34 32 37 31 3 -1 16 13 30 32 14 18
33 36 43 40 10 3 16 8 14 10 -7 7 57 70 66 66 4 -2 7 2 7 8 0 7 13 24 30 40
16 15 26 30 23 34 -3 3 -2 6 3 6 23 0 23 133 -1 156 -13 14 -14 19 -3 25 10 7
9 9 -4 9 -9 0 -20 9 -23 20 -3 11 -13 20 -21 20 -8 0 -13 4 -9 9 3 5 -4 12
-15 16 -11 3 -20 14 -20 22 0 9 -2 14 -5 11 -7 -6 -141 125 -137 135 2 4 -4 7
-12 7 -8 0 -18 9 -21 20 -3 11 -12 20 -20 20 -8 0 -17 9 -20 21 -4 11 -9 19
-11 16 -2 -2 -30 21 -61 52 l-57 56 -112 0 c-62 0 -121 -2 -130 -5z"/>
</g>
</svg>
