<?xml version="1.0" standalone="no"?>
<!DOCTYPE svg PUBLIC "-//W3C//DTD SVG 20010904//EN"
 "http://www.w3.org/TR/2001/REC-SVG-20010904/DTD/svg10.dtd">
<svg version="1.0" xmlns="http://www.w3.org/2000/svg"
 width="175.000000pt" height="175.000000pt" viewBox="0 0 175.000000 175.000000"
 preserveAspectRatio="xMidYMid meet">
<metadata>
Created by potrace 1.14, written by Peter Selinger 2001-2017
</metadata>
<g transform="translate(0.000000,175.000000) scale(0.100000,-0.100000)"
fill="#000000" stroke="none">
<path d="M129 1262 c-1 -35 -1 -782 0 -804 1 -16 12 -18 80 -18 l79 0 -1 423
-2 422 -77 2 -78 2 -1 -27z"/>
<path d="M526 1123 c-174 -177 -209 -225 -199 -276 8 -45 29 -71 204 -250
l155 -158 107 3 107 3 -195 196 c-156 157 -195 201 -195 223 0 21 39 66 195
222 107 108 195 197 195 199 0 2 -48 3 -107 3 l-107 0 -160 -165z"/>
<path d="M1050 1283 c0 -3 86 -91 190 -196 105 -104 191 -197 191 -206 1 -9 1
-23 -1 -31 -1 -8 -90 -104 -198 -212 l-197 -198 111 0 111 0 168 173 c207 212
223 242 167 325 -15 23 -96 111 -180 195 l-152 154 -105 1 c-58 0 -105 -2
-105 -5z"/>
</g>
</svg>
